<svg width="768" height="437" viewBox="0 0 768 437" fill="none" xmlns="http://www.w3.org/2000/svg">
<path d="M387.265 2.42441L755.995 126.14C759.652 127.367 759.625 132.549 755.954 133.738L694 153.794V236.631C694 237.204 694.123 237.77 694.361 238.291L719.919 294.34C721.127 296.989 719.191 300 716.28 300H657.22C654.309 300 652.373 296.989 653.581 294.34L679.139 238.291C679.377 237.77 679.5 237.204 679.5 236.631V158.488L387.225 253.104C386.428 253.361 385.571 253.363 384.774 253.108L11.6947 133.742C8.00709 132.562 7.97966 127.354 11.6546 126.135L384.734 2.41996C385.556 2.14737 386.444 2.14893 387.265 2.42441Z" fill="#3CAD6E"/>
<path d="M679.5 158.488L387.225 253.104C386.428 253.361 385.571 253.363 384.774 253.108L11.6947 133.742C8.00709 132.562 7.97966 127.354 11.6546 126.135L384.734 2.41996C385.556 2.14737 386.444 2.14893 387.265 2.42441L755.995 126.14C759.652 127.367 759.624 132.549 755.954 133.738L694 153.794M679.5 158.488V236.631C679.5 237.204 679.377 237.77 679.139 238.291L653.581 294.34C652.373 296.989 654.309 300 657.22 300H716.28C719.191 300 721.127 296.989 719.919 294.34L694.361 238.291C694.123 237.77 694 237.204 694 236.631V153.794M679.5 158.488L694 153.794" stroke="#3CAD6E" stroke-width="3" stroke-linejoin="round"/>
<path d="M158.685 202.108L382.79 271.625C383.577 271.869 384.421 271.864 385.205 271.611L607.77 199.69C610.353 198.855 613 200.781 613 203.496V354.698C613 355.844 612.51 356.936 611.647 357.688C477.223 474.836 211.37 443.957 154.154 359.976C153.714 359.33 153.5 358.583 153.5 357.801V205.929C153.5 203.234 156.111 201.31 158.685 202.108Z" fill="#3CAD6E" stroke="#3CAD6E" stroke-width="3" stroke-linejoin="round"/>
</svg>
